# xmcd
#
# Track frame offsets:
#  150
#  14900
#  37055
#  52925
#  73175
#  98475
#  114300
#  136000
#  145875
#  161150
#  168650
#  190975
#
# Disc length: 2756 seconds
#
# Revision: 0
# Processed by: cddbd v1.5.1PL2 Copyright (c) Steve Scherf et al.
# Submitted via: Collectorz.com_Music_Collector 6.9
#
DISCID=aa0ac20c
DTITLE=Various Artist - Earplugged
DYEAR=1900
DGENRE=General Rock
TTITLE0=Entombed - Out Of Hand
TTITLE1=Cathedral - Midnight Mountain
TTITLE2=Napalm Death - Plague Rages
TTITLE3=Godflesh - Xnoybis
TTITLE4=Bolt Thrower - ...For Victory
TTITLE5=Carcass - Embodiment
TTITLE6=Brutal Truth - Choice Of A New Generation
TTITLE7=Cathedral - Rde
TTITLE8=Napalm Death - State Of Mind
TTITLE9=Entombed - Wolverine Blues
TTITLE10=Godflesh - Anything Is Mine
TTITLE11=Bolt Thrower - When Glory Beckons
EXTD=
EXTT0=
EXTT1=
EXTT2=
EXTT3=
EXTT4=
EXTT5=
EXTT6=
EXTT7=
EXTT8=
EXTT9=
EXTT10=
EXTT11=
PLAYORDER=
